<svg width="160" height="36" viewBox="0 0 160 36" fill="none" xmlns="http://www.w3.org/2000/svg">
<g id="Logotype_STPG" clip-path="url(#clip0_4720_15431)">
<path id="Vector" d="M14.0852 0.862503C14.0071 0.801716 13.9115 0.775664 13.816 0.801716C5.8095 2.54717 0 9.76345 0 17.9523C0 26.1412 5.8095 33.3575 13.816 35.1029C13.8421 35.1029 13.8594 35.1029 13.8855 35.1029C13.955 35.1029 14.0331 35.0769 14.0852 35.0335C14.1634 34.9727 14.2068 34.8772 14.2068 34.7816V27.1138C14.2068 26.9835 14.1286 26.862 14.0071 26.8185C10.3598 25.351 8.00651 21.8687 8.00651 17.9523C8.00651 14.0359 10.3598 10.5537 14.0071 9.08611C14.1286 9.03401 14.2068 8.92112 14.2068 8.79086V1.11433C14.2068 1.01881 14.1634 0.92329 14.0852 0.862503Z" fill="#323E48"/>
<path id="Vector_2" d="M18.5053 0.792943C18.4098 0.775576 18.3142 0.792943 18.2361 0.85373C18.1579 0.914517 18.1145 1.01004 18.1145 1.10556V8.78209C18.1145 8.91235 18.1927 9.03392 18.3142 9.07734C21.9614 10.5449 24.3148 14.0271 24.3148 17.9436C24.3148 21.86 21.9614 25.3422 18.3142 26.8098C18.1927 26.8619 18.1145 26.9748 18.1145 27.105V34.7729C18.1145 34.8684 18.1579 34.9639 18.2361 35.0247C18.2969 35.0681 18.3663 35.0942 18.4358 35.0942C18.4619 35.0942 18.4792 35.0942 18.5053 35.0942C26.5118 33.3487 32.3213 26.1324 32.3213 17.9436C32.3213 9.75468 26.5031 2.54708 18.5053 0.792943Z" fill="#323E48"/>
<path id="Vector_3" d="M50.4793 20.2708C50.4793 18.3951 49.637 17.0231 47.9523 16.1547L42.7594 13.4974C41.752 12.9851 41.2484 12.1601 41.2484 11.0312C41.2484 10.267 41.5176 9.61573 42.056 9.07733C42.5944 8.53893 43.2543 8.26974 44.0098 8.26974C45.4079 8.26974 46.8147 8.54762 48.2302 9.0947C48.3952 9.16417 48.5254 9.19022 48.621 9.19022C48.8728 9.19022 49.0899 9.0947 49.2722 8.92102C49.4546 8.73866 49.5414 8.52157 49.5414 8.26974C49.5414 7.92238 49.3591 7.6445 48.9944 7.4274C47.8481 6.75874 46.1808 6.42007 44.0011 6.42007C42.7333 6.42007 41.6478 6.87163 40.7447 7.77476C39.8416 8.67788 39.39 9.76336 39.39 11.0312C39.39 12.9069 40.2237 14.2703 41.891 15.13L47.0839 17.7872C48.1086 18.3083 48.621 19.1332 48.621 20.2621C48.621 21.0263 48.3518 21.6776 47.8134 22.216C47.275 22.7544 46.615 23.0236 45.8595 23.0236C44.9737 23.0236 44.1488 22.8933 43.3933 22.6328C42.2383 22.1031 41.3873 21.6689 40.8489 21.3476C40.6405 21.2347 40.4668 21.1826 40.3192 21.1826C40.0674 21.1826 39.8503 21.2782 39.6679 21.4518C39.4855 21.6342 39.3987 21.8513 39.3987 22.1031C39.3987 22.3984 39.529 22.6502 39.8068 22.8586C41.5697 24.2046 43.5843 24.8733 45.8682 24.8733C47.136 24.8733 48.2215 24.4217 49.1246 23.5186C50.0277 22.6155 50.4793 21.53 50.4793 20.2621V20.2708Z" fill="#323E48"/>
<path id="Vector_4" d="M65.0681 7.34926C65.0681 6.73271 64.7642 6.42877 64.1476 6.42877C63.8697 6.42877 63.6353 6.53298 63.4529 6.73271L55.8459 15.1126V7.34926C55.8459 6.73271 55.5332 6.42877 54.9254 6.42877C54.3175 6.42877 54.0049 6.73271 54.0049 7.34926V23.9702C54.0049 24.5867 54.3088 24.8906 54.9254 24.8906C55.5419 24.8906 55.8459 24.5867 55.8459 23.9702V17.8741L58.2339 15.2429L63.3227 24.4044C63.4963 24.7343 63.7742 24.8906 64.1476 24.8906C64.3821 24.8906 64.5905 24.7951 64.7815 24.6041C64.9726 24.413 65.0681 24.2046 65.0681 23.9702C65.0681 23.8138 65.0247 23.6575 64.9465 23.5099L59.5452 13.784L64.8163 7.98318C64.9813 7.80082 65.0681 7.58372 65.0681 7.35794V7.34926Z" fill="#323E48"/>
<path id="Vector_5" d="M72.0847 6.42877C71.4681 6.42877 71.1642 6.73271 71.1642 7.34926V23.9702C71.1642 24.5867 71.4681 24.8906 72.0847 24.8906C72.7012 24.8906 73.0052 24.5867 73.0052 23.9702V7.34926C73.0052 6.73271 72.6925 6.42877 72.0847 6.42877Z" fill="#323E48"/>
<path id="Vector_6" d="M91.2847 24.8906C91.9013 24.8906 92.2052 24.5867 92.2052 23.9702V7.34926C92.2052 6.73271 91.8926 6.42877 91.2847 6.42877C90.6769 6.42877 90.3642 6.73271 90.3642 7.34926V20.4011L82.9048 6.97585C82.6964 6.61113 82.4185 6.42877 82.0538 6.42877C81.4372 6.42877 81.1333 6.73271 81.1333 7.34926V23.9702C81.1333 24.5867 81.4459 24.8906 82.0538 24.8906C82.6617 24.8906 82.9743 24.5867 82.9743 23.9702V10.901L90.4771 24.4304C90.6421 24.7343 90.9113 24.8906 91.2847 24.8906Z" fill="#323E48"/>
<path id="Vector_7" d="M109.912 6.42877H100.681C100.064 6.42877 99.7601 6.73271 99.7601 7.34926C99.7601 7.96581 100.064 8.26975 100.681 8.26975H104.371V23.9615C104.371 24.578 104.675 24.882 105.292 24.882C105.908 24.882 106.212 24.578 106.212 23.9615V8.26975H109.903C110.519 8.26975 110.823 7.96581 110.823 7.34926C110.823 6.73271 110.519 6.42877 109.903 6.42877H109.912Z" fill="#323E48"/>
<path id="Vector_8" d="M122.555 8.26975C123.172 8.26975 123.476 7.96581 123.476 7.34926C123.476 6.73271 123.163 6.42877 122.555 6.42877H115.165C114.549 6.42877 114.245 6.73271 114.245 7.34926V23.9702C114.245 24.5867 114.549 24.8906 115.165 24.8906H122.555C123.172 24.8906 123.476 24.5867 123.476 23.9702C123.476 23.3536 123.163 23.0497 122.555 23.0497H116.094V15.6597H120.714C121.331 15.6597 121.635 15.3558 121.635 14.7392C121.635 14.1227 121.322 13.8187 120.714 13.8187H116.094V8.27843H122.555V8.26975Z" fill="#323E48"/>
<path id="Vector_9" d="M130.466 9.08601C131.005 8.54762 131.656 8.27842 132.429 8.27842H136.119C136.736 8.27842 137.04 7.97448 137.04 7.35793C137.04 6.74137 136.727 6.43744 136.119 6.43744H132.429C131.152 6.43744 130.067 6.889 129.164 7.78344C128.261 8.68656 127.818 9.77204 127.818 11.0486V20.2795C127.818 21.556 128.269 22.6415 129.164 23.5446C130.067 24.4478 131.152 24.8906 132.429 24.8906H136.119C136.736 24.8906 137.04 24.5867 137.04 23.9701C137.04 23.3536 136.727 23.0497 136.119 23.0497H132.429C131.665 23.0497 131.013 22.7805 130.466 22.2421C129.928 21.7037 129.659 21.0524 129.659 20.2882V11.0572C129.659 10.2931 129.928 9.64178 130.466 9.10338V9.08601Z" fill="#323E48"/>
<path id="Vector_10" d="M150.708 23.9702C150.708 24.5867 151.021 24.8906 151.629 24.8906C152.237 24.8906 152.549 24.5867 152.549 23.9702V7.34926C152.549 6.73271 152.237 6.42877 151.629 6.42877C151.021 6.42877 150.708 6.73271 150.708 7.34926V13.81H143.327V7.34926C143.327 6.73271 143.014 6.42877 142.407 6.42877C141.799 6.42877 141.486 6.73271 141.486 7.34926V23.9702C141.486 24.5867 141.799 24.8906 142.407 24.8906C143.014 24.8906 143.327 24.5867 143.327 23.9702V15.6597H150.708V23.9702Z" fill="#323E48"/>
<path id="Vector_11" d="M41.0225 29.9967H39.1902V35.1202H40.0412V33.2619H41.0225C41.9951 33.2619 42.6724 32.5845 42.6724 31.6206C42.6724 30.6567 41.9951 29.9967 41.0225 29.9967ZM40.9617 32.4543H40.0412V30.8043H40.9704C41.5088 30.8043 41.8127 31.0996 41.8127 31.6206C41.8127 32.1416 41.5001 32.4543 40.9617 32.4543Z" fill="#323E48"/>
<path id="Vector_12" d="M51.6776 32.1503H49.3156V29.9967H48.4646V35.1115H49.3156V32.9492H51.6776V35.1115H52.5286V29.9967H51.6776V32.1503Z" fill="#323E48"/>
<path id="Vector_13" d="M59.962 29.9967L58.0863 35.1202H58.9894L59.5278 33.6092H61.1604L61.7075 35.1202H62.6106L60.7349 29.9967H59.9707H59.962ZM59.8057 32.819L60.3441 31.3601C60.3441 31.3601 60.3441 31.3514 60.3441 31.3427C60.3441 31.3427 60.3441 31.3514 60.3441 31.3601L60.8738 32.819H59.797H59.8057Z" fill="#323E48"/>
<path id="Vector_14" d="M70.7473 32.9145C71.2423 32.6713 71.5549 32.159 71.5549 31.5338C71.5549 30.9085 71.2423 30.3701 70.7213 30.1357C70.5129 30.0488 70.2784 29.988 69.7574 29.988H68.1595V35.1115H69.0106V33.1229H69.8963L70.9644 35.1115H71.937L70.7473 32.9145ZM69.9484 32.324H69.0193V30.8043H69.7834C70.1221 30.8043 70.261 30.8391 70.3652 30.8998C70.6344 31.0475 70.6952 31.3427 70.6952 31.5598C70.6952 32.0374 70.4174 32.3327 69.9484 32.3327V32.324Z" fill="#323E48"/>
<path id="Vector_15" d="M81.3764 29.9967L80.0825 32.8885C80.0651 32.9319 80.0391 32.984 80.0217 33.0361C80.0043 32.984 79.9783 32.9319 79.9609 32.8885L78.667 29.9967H77.8768L77.4686 35.1202H78.3196L78.5802 31.8464L79.6743 34.2431H80.3604L81.4458 31.8638L81.7063 35.1289H82.5574L82.1492 30.0054H81.3677L81.3764 29.9967Z" fill="#323E48"/>
<path id="Vector_16" d="M89.8344 29.9967L87.9587 35.1202H88.8619L89.4003 33.6092H91.0328L91.5799 35.1202H92.483L90.6073 29.9967H89.8431H89.8344ZM89.6781 32.819L90.2165 31.3601C90.2165 31.3601 90.2165 31.3514 90.2165 31.3427C90.2165 31.3427 90.2165 31.3514 90.2165 31.3601L90.7463 32.819H89.6695H89.6781Z" fill="#323E48"/>
<path id="Vector_17" d="M107.228 33.2706H108.045V33.8089C107.906 33.9566 107.428 34.3908 106.742 34.3908C105.761 34.3908 105.049 33.6179 105.049 32.5411C105.049 31.4643 105.778 30.7175 106.785 30.7175C107.567 30.7175 108.079 31.143 108.079 31.143L108.236 31.2819L108.704 30.622L108.583 30.5091C108.583 30.5091 107.923 29.9012 106.759 29.9012C105.309 29.9012 104.172 31.0649 104.172 32.5498C104.172 34.0347 105.283 35.2071 106.69 35.2071C107.306 35.2071 107.767 34.9813 108.053 34.7815V35.1202H108.869V32.463H107.228V33.2706Z" fill="#323E48"/>
<path id="Vector_18" d="M118.439 32.9145C118.934 32.6714 119.247 32.159 119.247 31.5251C119.247 30.8912 118.934 30.3528 118.413 30.1183C118.205 30.0315 117.97 29.9707 117.44 29.9707H115.843V35.1202H116.694V33.1142H117.579L118.656 35.1202H119.629L118.439 32.9145ZM117.632 32.3153H116.694V30.787H117.458C117.797 30.787 117.935 30.8217 118.04 30.8825C118.318 31.0301 118.37 31.3254 118.37 31.5425C118.37 32.0287 118.092 32.3153 117.623 32.3153H117.632Z" fill="#323E48"/>
<path id="Vector_19" d="M128.608 29.9012C127.14 29.9012 125.994 31.0562 125.994 32.5237C125.994 33.9913 127.14 35.2071 128.608 35.2071C130.075 35.2071 131.222 34.026 131.222 32.5237C131.222 31.0214 130.075 29.9012 128.608 29.9012ZM128.608 34.3908C127.627 34.3908 126.862 33.5745 126.862 32.5237C126.862 31.473 127.627 30.7175 128.608 30.7175C129.589 30.7175 130.353 31.5077 130.353 32.5237C130.353 33.5398 129.589 34.3908 128.608 34.3908Z" fill="#323E48"/>
<path id="Vector_20" d="M141.234 33.2532C141.234 33.9653 140.8 34.3908 140.071 34.3908C139.341 34.3908 138.916 33.9739 138.916 33.2706V29.9794H138.056V33.2706C138.056 34.4255 138.872 35.2071 140.079 35.2071C141.286 35.2071 142.085 34.4342 142.085 33.2706V29.9794H141.234V33.2532Z" fill="#323E48"/>
<path id="Vector_21" d="M151.09 29.9794H149.249V35.1289H150.1V33.2619H151.082C152.063 33.2619 152.74 32.5845 152.74 31.6119C152.74 30.6393 152.054 29.9881 151.082 29.9881L151.09 29.9794ZM151.03 32.4543H150.109V30.787H151.038C151.577 30.787 151.889 31.0909 151.889 31.6119C151.889 32.133 151.577 32.4543 151.03 32.4543Z" fill="#323E48"/>
<path id="Vector_22" d="M158.741 8.07C158.741 7.63581 158.498 7.44476 158.011 7.44476H157.117V9.7894H157.421V8.70392H157.768L158.35 9.7894H158.715L158.098 8.70392C158.463 8.69524 158.741 8.52156 158.741 8.06132V8.07ZM157.994 8.39999H157.438V7.75738H157.968C158.228 7.75738 158.437 7.77475 158.437 8.06132C158.437 8.34788 158.246 8.40867 157.994 8.40867V8.39999Z" fill="#323E48"/>
<path id="Vector_23" d="M157.812 6.42877C156.605 6.42877 155.623 7.41005 155.623 8.6171C155.623 9.82416 156.605 10.8054 157.812 10.8054C159.019 10.8054 160 9.82416 160 8.6171C160 7.41005 159.019 6.42877 157.812 6.42877ZM157.812 10.4494C156.804 10.4494 155.979 9.62443 155.979 8.6171C155.979 7.60978 156.804 6.78481 157.812 6.78481C158.819 6.78481 159.644 7.60978 159.644 8.6171C159.644 9.62443 158.819 10.4494 157.812 10.4494Z" fill="#323E48"/>
</g>
<defs>
<clipPath id="clip0_4720_15431">
<rect width="160" height="34.4141" fill="white" transform="translate(0 0.792938)"/>
</clipPath>
</defs>
</svg>
