<svg width="40" height="44" viewBox="0 0 40 44" fill="none" xmlns="http://www.w3.org/2000/svg">
<g id="Logotype_Icon_STPG" clip-path="url(#clip0_286_61308)">
<path id="Vector" d="M17.3179 0.735543C17.2218 0.660805 17.1043 0.628775 16.9869 0.660805C7.14283 2.80686 0 11.6793 0 21.7476C0 31.8159 7.14283 40.6884 16.9869 42.8344C17.0189 42.8344 17.0403 42.8344 17.0723 42.8344C17.1577 42.8344 17.2538 42.8024 17.3179 42.749C17.414 42.6743 17.4674 42.5568 17.4674 42.4394V33.0117C17.4674 32.8516 17.3713 32.7021 17.2218 32.6487C12.7375 30.8443 9.84407 26.5629 9.84407 21.7476C9.84407 16.9324 12.7375 12.6509 17.2218 10.8465C17.3713 10.7825 17.4674 10.6437 17.4674 10.4835V1.04517C17.4674 0.927727 17.414 0.810282 17.3179 0.735543Z" fill="#84DADE"/>
<path id="Vector_2" d="M22.7524 0.650426C22.635 0.629073 22.5175 0.650426 22.4214 0.725164C22.3253 0.799902 22.2719 0.917348 22.2719 1.03479V10.4731C22.2719 10.6333 22.368 10.7828 22.5175 10.8362C27.0018 12.6406 29.8952 16.922 29.8952 21.7372C29.8952 26.5525 27.0018 30.8339 22.5175 32.6383C22.368 32.7024 22.2719 32.8412 22.2719 33.0013V42.429C22.2719 42.5465 22.3253 42.6639 22.4214 42.7386C22.4962 42.792 22.5816 42.8241 22.667 42.8241C22.699 42.8241 22.7204 42.8241 22.7524 42.8241C32.5965 40.678 39.7393 31.8055 39.7393 21.7372C39.7393 11.669 32.5858 2.80715 22.7524 0.650426Z" fill="#84DADE"/>
</g>
<defs>
<clipPath id="clip0_286_61308">
<rect width="40" height="42.623" fill="white" transform="translate(0 0.650391)"/>
</clipPath>
</defs>
</svg>
