<svg width="2461" height="835" viewBox="0 0 2461 835" fill="none" xmlns="http://www.w3.org/2000/svg">
<g clip-path="url(#clip0_2659_1117)">
<path d="M2249.45 14.0824C2358.36 14.0824 2446.91 102.627 2446.91 211.536V620.522C2446.91 729.432 2358.36 817.976 2249.45 817.976H1085.89C976.982 817.976 888.438 729.432 888.438 620.522V211.536C888.438 102.627 976.982 14.0824 1085.89 14.0824H2249.45ZM2249.45 0.00390625H1085.89C969.102 0.00390625 874.359 94.7463 874.359 211.536V620.522C874.359 737.312 969.102 832.055 1085.89 832.055H2249.45C2366.24 832.055 2460.98 737.312 2460.98 620.522V211.536C2460.98 94.7463 2366.24 0.00390625 2249.45 0.00390625Z" fill="white"/>
<path d="M622.998 14.0824C731.907 14.0824 820.451 102.627 820.451 211.536V623.001C820.451 731.911 731.907 820.455 622.998 820.455H211.532C102.623 820.455 14.0785 731.911 14.0785 623.001V211.536C14.0785 102.715 102.711 14.0824 211.532 14.0824H622.998ZM622.998 0.00390625H211.532C94.7424 0.00390625 0 94.7463 0 211.536V623.001C0 739.791 94.7424 834.534 211.532 834.534H622.998C739.787 834.534 834.53 739.791 834.53 623.001V211.536C834.53 94.6577 739.787 0.00390625 622.998 0.00390625Z" fill="white"/>
<path d="M575.255 131.322H255.522V147.349H575.255V131.322ZM655.122 459.025C655.122 467.791 662.206 474.874 670.794 474.874C679.383 474.874 686.555 467.791 686.555 459.025C686.555 450.259 679.472 443.264 670.794 443.264C662.117 443.264 655.122 450.347 655.122 459.025ZM143.867 459.025C143.867 467.791 150.951 474.874 159.54 474.874C168.128 474.874 175.3 467.791 175.3 459.025C175.3 450.259 168.305 443.264 159.54 443.264C150.774 443.264 143.867 450.347 143.867 459.025ZM511.326 482.666C494.591 500.818 469.09 523.219 439.34 547.126V643.02C465.017 623.54 489.279 603.972 511.326 583.784V482.666ZM391.614 547.038C361.863 523.131 336.185 500.818 319.362 482.577V583.695C341.41 603.883 365.582 623.451 391.26 642.931L391.526 547.038H391.614ZM319.451 435.738C336.185 417.586 361.598 395.184 391.349 371.277V275.384C365.671 294.864 341.498 314.609 319.451 334.709V435.826V435.738ZM559.317 380.84V537.652C598.365 498.25 624.84 466.728 631.304 459.202C624.84 451.587 598.365 420.154 559.317 380.752M439.34 371.189C469.09 395.096 494.591 417.497 511.326 435.649V334.531C489.279 314.432 465.017 294.775 439.34 275.207V371.1V371.189ZM271.46 537.652V380.752C232.5 420.242 206.025 451.587 199.562 459.202C206.025 466.817 232.5 498.25 271.46 537.652ZM191.415 435.206C230.995 390.491 313.784 301.239 414.901 230.049C516.107 301.239 599.782 390.491 639.273 435.206C639.273 435.206 562.682 310.005 414.901 211.366C267.121 309.916 191.415 435.206 191.415 435.206ZM639.273 483.02C599.693 527.735 516.904 616.988 415.787 688.266C314.581 617.076 230.906 527.824 191.415 483.02C191.415 483.02 268.006 608.222 415.787 706.949C563.656 608.31 639.273 483.02 639.273 483.02ZM413.485 505.599C411.802 506.219 410.031 508.344 407.906 511.354C404.453 516.49 394.448 517.552 386.213 515.073C376.65 512.151 371.337 501.615 370.098 497.276C368.858 492.937 370.629 491.166 376.296 490.546C382.406 489.838 387.275 492.937 386.036 489.484C384.442 485.057 367.442 485.145 360.801 471.244C356.019 461.327 359.473 445.832 361.509 438.66C362.129 436.357 364.431 434.764 366.822 435.029C372.134 435.561 381.077 437.243 387.364 442.556C395.599 449.551 396.484 460.796 400.114 459.91C401.797 459.556 401.443 455.926 399.317 450.436C397.192 444.946 390.286 436.623 389.401 427.06C388.692 419.711 392.145 408.289 398.609 400.408C402.505 395.716 409.589 390.226 413.13 387.747C413.75 387.304 414.547 387.127 415.255 387.127C415.964 387.127 416.761 387.304 417.381 387.747C420.922 390.226 428.094 395.716 431.902 400.408C438.366 408.289 441.819 419.623 441.11 427.06C440.225 436.534 433.319 444.858 431.193 450.436C429.068 455.926 428.626 459.556 430.397 459.91C434.115 460.707 435.001 449.462 443.147 442.556C449.434 437.243 458.377 435.472 463.689 435.029C466.08 434.764 468.294 436.357 469.002 438.66C471.038 445.832 474.492 461.327 469.71 471.244C463.069 485.145 445.98 484.968 444.475 489.484C443.235 492.937 448.017 489.838 454.215 490.546C459.793 491.255 461.653 492.937 460.413 497.276C459.173 501.615 453.861 512.151 444.298 515.073C436.152 517.552 426.058 516.49 422.605 511.354C420.48 508.344 418.709 506.219 417.026 505.599C416.584 507.636 416.052 511.62 416.052 517.287C416.052 525.167 417.381 528.266 417.381 530.037C417.381 531.808 413.308 531.365 412.688 530.923C412.068 530.48 411.625 524.725 411.625 517.198C411.625 511.354 412.865 507.281 413.396 505.688" fill="white"/>
<path d="M1216.25 337.334L1206.06 306.697H1163.74L1153.82 337.334H1135.14L1173.75 224.086H1196.77L1235.37 337.334H1216.25ZM1185.26 240.909H1184.46L1168.08 290.936H1201.55L1185.35 240.909H1185.26ZM1251.66 252.951H1269.37V348.667C1269.37 355.131 1267.69 360.267 1264.33 364.074C1261.05 367.881 1255.92 369.741 1248.74 369.741H1238.56V355.308H1251.66V252.862V252.951ZM1260.61 237.898C1256.89 237.898 1254.23 237.013 1252.46 235.331C1250.87 233.56 1250.07 231.346 1250.07 228.69V225.945C1250.07 223.2 1250.87 220.986 1252.46 219.304C1254.23 217.533 1256.89 216.736 1260.61 216.736C1264.33 216.736 1266.89 217.622 1268.58 219.304C1270.17 221.075 1271.06 223.289 1271.06 225.945V228.69C1271.06 231.435 1270.26 233.648 1268.58 235.331C1266.98 237.102 1264.33 237.898 1260.61 237.898ZM1345.79 323.432H1345.17C1344.37 325.469 1343.4 327.505 1342.07 329.453C1340.92 331.401 1339.32 333.172 1337.38 334.677C1335.52 336.094 1333.3 337.245 1330.56 338.042C1327.99 338.927 1324.89 339.37 1321.44 339.37C1312.67 339.37 1305.85 336.537 1300.98 330.958C1296.2 325.292 1293.81 317.234 1293.81 306.786V253.039H1311.52V304.484C1311.52 317.588 1316.92 324.141 1327.72 324.141C1330.03 324.141 1332.24 323.875 1334.37 323.344C1336.49 322.724 1338.44 321.75 1340.03 320.599C1341.8 319.448 1343.13 317.854 1344.11 316.083C1345.17 314.224 1345.7 312.099 1345.7 309.619V253.128H1363.41V337.511H1345.7V323.521L1345.79 323.432ZM1388.73 337.334V252.951H1406.44V266.941H1407.24C1409.1 262.425 1411.84 258.618 1415.47 255.607C1419.28 252.597 1424.41 251.092 1430.88 251.092C1439.56 251.092 1446.29 253.925 1450.98 259.68C1455.85 265.347 1458.33 273.405 1458.33 283.853V337.422H1440.62V286.155C1440.62 272.962 1435.31 266.321 1424.68 266.321C1422.38 266.321 1420.16 266.675 1417.86 267.295C1415.74 267.826 1413.79 268.712 1412.02 269.863C1410.25 271.014 1408.92 272.608 1407.77 274.379C1406.79 276.238 1406.35 278.363 1406.35 280.842V337.334H1388.64H1388.73ZM1506.32 337.334C1500.12 337.334 1495.52 335.74 1492.33 332.641C1489.23 329.365 1487.64 324.849 1487.64 319.005V267.384H1474.53V252.951H1481.7C1484.62 252.951 1486.66 252.331 1487.72 251.003C1488.88 249.675 1489.49 247.638 1489.49 244.716V229.929H1505.43V252.951H1523.14V267.384H1505.43V322.901H1521.81V337.334H1506.41H1506.32ZM1603.98 337.334C1599.29 337.334 1595.75 336.005 1593.27 333.438C1590.79 330.693 1589.28 327.328 1588.75 323.255H1587.96C1586.36 328.568 1583.35 332.552 1579.01 335.297C1574.67 338.042 1569.45 339.37 1563.25 339.37C1554.49 339.37 1547.76 337.068 1542.98 332.552C1538.37 328.037 1535.98 321.927 1535.98 314.224C1535.98 305.812 1538.99 299.437 1545.1 295.275C1551.3 291.025 1560.24 288.988 1572.02 288.988H1587.25V281.816C1587.25 276.592 1585.83 272.608 1583 269.774C1580.16 266.941 1575.83 265.524 1569.89 265.524C1564.93 265.524 1560.86 266.587 1557.76 268.8C1554.66 270.925 1552.01 273.759 1549.79 277.035L1539.26 267.472C1542.09 262.691 1545.99 258.795 1551.12 255.784C1556.17 252.685 1562.9 251.092 1571.04 251.092C1581.94 251.092 1590.35 253.659 1596.19 258.706C1602.03 263.753 1604.96 271.103 1604.96 280.577V322.901H1613.9V337.334H1603.98ZM1568.3 325.823C1573.79 325.823 1578.39 324.672 1581.94 322.281C1585.48 319.802 1587.25 316.526 1587.25 312.364V300.234H1572.28C1560.06 300.234 1553.96 304.041 1553.96 311.567V314.489C1553.96 318.297 1555.19 321.13 1557.67 323.078C1560.24 324.937 1563.78 325.823 1568.21 325.823H1568.3ZM1631.25 337.334V252.951H1648.96V266.941H1649.76C1650.65 264.816 1651.62 262.691 1652.86 260.743C1654.19 258.795 1655.69 257.113 1657.37 255.696C1659.23 254.191 1661.36 253.039 1663.66 252.331C1666.14 251.446 1669.06 251.003 1672.25 251.003C1678.01 251.003 1683.05 252.42 1687.48 255.253C1691.91 258.087 1695.18 262.425 1697.22 268.269H1697.66C1699.17 263.488 1702.09 259.415 1706.43 256.139C1710.77 252.774 1716.35 251.092 1723.16 251.092C1731.58 251.092 1738.13 253.925 1742.82 259.68C1747.51 265.347 1749.82 273.405 1749.82 283.853V337.422H1732.11V285.978C1732.11 279.514 1730.87 274.644 1728.39 271.368C1725.91 268.003 1721.92 266.321 1716.52 266.321C1714.22 266.321 1712.1 266.675 1710.06 267.295C1708.02 267.826 1706.16 268.712 1704.57 269.863C1703.06 271.014 1701.82 272.608 1700.85 274.379C1699.88 276.238 1699.43 278.363 1699.43 280.665V337.334H1681.72V285.889C1681.72 272.785 1676.59 266.233 1666.32 266.233C1664.19 266.233 1661.98 266.587 1659.85 267.207C1657.82 267.738 1655.96 268.623 1654.36 269.774C1652.77 270.925 1651.44 272.519 1650.47 274.29C1649.49 276.15 1649.05 278.275 1649.05 280.577V337.245H1631.34L1631.25 337.334ZM1807.46 339.282C1801.44 339.282 1796.04 338.219 1791.25 336.183C1786.47 334.146 1782.4 331.224 1779.12 327.417C1775.76 323.521 1773.19 318.828 1771.33 313.427C1769.56 307.937 1768.76 301.827 1768.76 295.098C1768.76 288.369 1769.65 282.348 1771.33 276.946C1773.19 271.457 1775.76 266.764 1779.12 262.956C1782.49 259.061 1786.56 256.05 1791.25 254.013C1796.04 251.977 1801.44 250.914 1807.46 250.914C1813.48 250.914 1819.06 251.977 1823.66 254.191C1828.44 256.316 1832.34 259.415 1835.53 263.311C1838.63 267.118 1841.02 271.545 1842.52 276.592C1844.11 281.639 1844.91 287.129 1844.91 292.973V299.614H1787V302.359C1787 308.822 1788.86 314.224 1792.67 318.385C1796.57 322.458 1802.06 324.583 1809.23 324.583C1814.45 324.583 1818.79 323.432 1822.33 321.219C1825.87 318.916 1828.97 315.906 1831.45 312.01L1841.81 322.193C1838.71 327.417 1834.11 331.578 1828.18 334.677C1822.24 337.688 1815.34 339.193 1807.37 339.193L1807.46 339.282ZM1807.46 264.816C1804.45 264.816 1801.61 265.347 1799.05 266.41C1796.57 267.472 1794.44 268.977 1792.58 270.925C1790.81 272.873 1789.48 275.176 1788.51 277.92C1787.54 280.665 1787.09 283.587 1787.09 286.863V288.014H1826.41V286.421C1826.41 279.957 1824.72 274.733 1821.36 270.837C1817.99 266.852 1813.39 264.816 1807.55 264.816H1807.46ZM1864.57 337.334V252.951H1882.28V266.941H1883.07C1884.93 262.425 1887.68 258.618 1891.31 255.607C1895.12 252.597 1900.25 251.092 1906.72 251.092C1915.39 251.092 1922.12 253.925 1926.82 259.68C1931.69 265.347 1934.08 273.405 1934.08 283.853V337.422H1916.37V286.155C1916.37 272.962 1911.05 266.321 1900.43 266.321C1898.13 266.321 1895.91 266.675 1893.61 267.295C1891.49 267.826 1889.54 268.712 1887.77 269.863C1886 271.014 1884.67 272.608 1883.52 274.379C1882.54 276.238 1882.1 278.363 1882.1 280.842V337.334H1864.39H1864.57ZM1982.07 337.334C1975.87 337.334 1971.26 335.74 1968.08 332.641C1964.98 329.365 1963.38 324.849 1963.38 319.005V267.384H1950.28V252.951H1957.45C1960.37 252.951 1962.41 252.331 1963.47 251.003C1964.62 249.675 1965.24 247.638 1965.24 244.716V229.929H1981.18V252.951H1998.89V267.384H1981.18V322.901H1997.56V337.334H1982.16H1982.07ZM2109.39 323.432H2108.6C2106.74 328.391 2103.73 332.287 2099.48 335.12C2095.4 337.953 2090.53 339.37 2084.87 339.37C2074.15 339.37 2065.92 335.563 2060.07 327.859C2054.23 320.068 2051.31 309.177 2051.31 295.275C2051.31 281.374 2054.23 270.483 2060.07 262.779C2065.92 254.987 2074.24 251.092 2084.87 251.092C2090.53 251.092 2095.4 252.508 2099.48 255.342C2103.73 258.087 2106.74 261.982 2108.6 267.029H2109.39V217.356H2127.1V337.422H2109.39V323.432ZM2090.27 324.052C2095.67 324.052 2100.18 322.724 2103.9 320.156C2107.62 317.411 2109.39 313.958 2109.39 309.619V280.754C2109.39 276.415 2107.53 272.962 2103.9 270.394C2100.18 267.649 2095.67 266.321 2090.27 266.321C2084.07 266.321 2079.2 268.358 2075.48 272.342C2071.76 276.238 2069.99 281.462 2069.99 287.926V302.536C2069.99 308.999 2071.85 314.312 2075.48 318.297C2079.11 322.193 2084.07 324.141 2090.27 324.141V324.052ZM2185.45 339.282C2179.43 339.282 2173.94 338.219 2169.25 336.183C2164.47 334.146 2160.39 331.224 2157.12 327.417C2153.75 323.521 2151.19 318.828 2149.33 313.427C2147.56 307.937 2146.76 301.827 2146.76 295.098C2146.76 288.369 2147.64 282.348 2149.33 276.946C2151.19 271.457 2153.75 266.764 2157.12 262.956C2160.48 259.061 2164.56 256.05 2169.25 254.013C2174.03 251.977 2179.43 250.914 2185.45 250.914C2191.47 250.914 2197.05 251.977 2201.66 254.191C2206.44 256.316 2210.33 259.415 2213.52 263.311C2216.62 267.118 2219.01 271.545 2220.52 276.592C2222.11 281.639 2222.91 287.129 2222.91 292.973V299.614H2165V302.359C2165 308.822 2166.86 314.224 2170.67 318.385C2174.56 322.458 2180.05 324.583 2187.22 324.583C2192.45 324.583 2196.79 323.432 2200.33 321.219C2203.87 318.916 2206.97 315.906 2209.45 312.01L2219.81 322.193C2216.71 327.417 2212.1 331.578 2206.17 334.677C2200.24 337.688 2193.33 339.193 2185.36 339.193L2185.45 339.282ZM2185.45 264.816C2182.44 264.816 2179.61 265.347 2177.04 266.41C2174.56 267.472 2172.35 268.977 2170.58 270.925C2168.81 272.873 2167.48 275.176 2166.5 277.92C2165.53 280.665 2165.09 283.587 2165.09 286.863V288.014H2204.4V286.421C2204.4 279.957 2202.72 274.733 2199.35 270.837C2195.99 266.852 2191.39 264.816 2185.54 264.816H2185.45Z" fill="white"/>
<path d="M1131.58 595.192V396.144H1255.89V424.656H1163.81V479.996H1245.62V508.507H1163.81V595.192H1131.58ZM1307.6 420.405C1301.14 420.405 1296.36 418.9 1293.35 415.801C1290.52 412.791 1289.1 408.895 1289.1 404.113V399.243C1289.1 394.462 1290.52 390.566 1293.35 387.555C1296.36 384.545 1301.14 382.951 1307.6 382.951C1314.07 382.951 1318.76 384.456 1321.59 387.555C1324.43 390.566 1325.84 394.462 1325.84 399.243V404.113C1325.84 408.895 1324.43 412.791 1321.59 415.801C1318.76 418.812 1314.07 420.405 1307.6 420.405ZM1291.93 446.88H1323.01V595.192H1291.93V446.88ZM1497.44 609.093C1497.44 624.5 1491.6 636.099 1479.73 643.891C1467.96 651.683 1448.74 655.579 1422.18 655.579C1410.05 655.579 1399.69 654.694 1391.1 653.011C1382.78 651.506 1375.78 649.204 1370.29 646.193C1364.98 643.183 1361.08 639.464 1358.61 635.037C1356.13 630.698 1354.89 625.651 1354.89 619.896C1354.89 611.75 1357.1 605.374 1361.44 600.77C1366.04 596.166 1372.24 593.067 1380.3 591.384V588.285C1369.05 584.655 1363.48 577.04 1363.48 565.441C1363.48 557.826 1366.04 552.071 1371.18 548.086C1376.31 543.925 1382.51 540.914 1389.68 539.232V538.081C1380.92 533.919 1374.19 528.075 1369.41 520.726C1364.8 513.111 1362.59 504.257 1362.59 494.251C1362.59 479.022 1367.64 466.803 1377.73 457.505C1388 448.208 1402.61 443.515 1421.65 443.515C1432.1 443.515 1441.04 445.021 1448.48 448.12V444.135C1448.48 437.494 1449.98 432.359 1453.08 428.729C1456.36 424.921 1461.23 423.062 1467.87 423.062H1490.71V448.12H1460.52V454.141C1467.16 458.479 1472.3 464.235 1475.93 471.23C1479.56 478.048 1481.33 485.751 1481.33 494.34C1481.33 509.392 1476.19 521.523 1465.92 530.82C1455.65 539.94 1441.04 544.544 1422 544.544C1414.74 544.544 1408.28 543.748 1402.61 542.242C1398.8 543.571 1395.44 545.43 1392.61 547.909C1389.77 550.211 1388.36 553.222 1388.36 557.029C1388.36 561.014 1390.13 563.847 1393.76 565.618C1397.39 567.3 1402.52 568.186 1409.16 568.186H1445.64C1463.88 568.186 1477.08 571.905 1485.31 579.342C1493.46 586.603 1497.53 596.52 1497.53 609.27L1497.44 609.093ZM1468.4 612.547C1468.4 607.411 1466.36 603.338 1462.38 600.327C1458.57 597.317 1451.58 595.723 1441.31 595.723H1391.1C1384.28 599.708 1380.83 605.374 1380.83 612.812C1380.83 618.922 1383.22 623.703 1388 627.333C1392.96 631.141 1401.2 633 1412.79 633H1432.19C1456.36 633 1468.4 626.182 1468.4 612.458V612.547ZM1421.91 521.877C1431.03 521.877 1438.03 519.841 1442.99 515.856C1448.12 511.695 1450.69 505.319 1450.69 496.731V491.064C1450.69 482.475 1448.12 476.277 1442.99 472.204C1438.03 468.042 1431.03 465.917 1421.91 465.917C1412.79 465.917 1405.62 468.042 1400.49 472.204C1395.53 476.188 1393.05 482.475 1393.05 491.064V496.731C1393.05 505.319 1395.53 511.695 1400.49 515.856C1405.62 519.841 1412.71 521.877 1421.91 521.877ZM1609.27 570.665H1608.12C1606.8 574.295 1605.02 577.837 1602.72 581.202C1600.6 584.655 1597.85 587.666 1594.49 590.322C1591.3 592.801 1587.23 594.749 1582.53 596.343C1577.93 597.848 1572.62 598.645 1566.6 598.645C1551.19 598.645 1539.24 593.687 1530.65 583.858C1522.32 573.941 1518.07 559.774 1518.07 541.357V446.969H1549.15V537.372C1549.15 560.394 1558.63 571.905 1577.66 571.905C1581.65 571.905 1585.54 571.462 1589.35 570.488C1593.16 569.337 1596.52 567.743 1599.36 565.618C1602.37 563.493 1604.76 560.837 1606.44 557.649C1608.39 554.461 1609.27 550.654 1609.27 546.227V446.969H1640.35V595.28H1609.27V570.754V570.665ZM1743.06 598.556C1732.44 598.556 1722.88 596.786 1714.55 593.155C1706.23 589.525 1699.06 584.389 1693.13 577.749C1687.28 570.931 1682.68 562.696 1679.4 553.222C1676.39 543.57 1674.8 532.768 1674.8 520.992C1674.8 509.215 1676.3 498.59 1679.4 489.027C1682.68 479.376 1687.19 471.141 1693.13 464.5C1699.06 457.683 1706.14 452.458 1714.55 448.828C1722.88 445.198 1732.44 443.427 1743.06 443.427C1753.69 443.427 1763.43 445.286 1771.58 449.094C1779.9 452.901 1786.89 458.214 1792.38 465.032C1797.87 471.673 1801.95 479.464 1804.6 488.407C1807.44 497.35 1808.85 506.913 1808.85 517.184V528.872H1707.03V533.742C1707.03 545.164 1710.39 554.55 1717.03 561.988C1723.85 569.248 1733.59 572.79 1746.16 572.79C1755.28 572.79 1762.99 570.754 1769.27 566.769C1775.56 562.785 1780.87 557.383 1785.21 550.477L1803.45 568.451C1797.96 577.571 1789.99 584.921 1779.55 590.41C1769.1 595.723 1756.97 598.379 1743.06 598.379V598.556ZM1743.06 467.688C1737.75 467.688 1732.79 468.662 1728.28 470.521C1723.94 472.381 1720.13 475.126 1716.86 478.49C1713.85 481.944 1711.45 486.017 1709.68 490.71C1708 495.491 1707.12 500.715 1707.12 506.382V508.418H1776.09V505.585C1776.09 494.163 1773.17 485.043 1767.24 478.225C1761.31 471.23 1753.25 467.688 1742.98 467.688H1743.06ZM1843.3 595.192V446.88H1874.38V475.391H1875.79C1877.92 467.777 1882.26 461.136 1888.9 455.469C1895.54 449.802 1904.75 446.88 1916.52 446.88H1924.76V476.808H1912.54C1900.14 476.808 1890.67 478.845 1884.03 482.829C1877.56 486.814 1874.38 492.746 1874.38 500.538V595.192H1843.3ZM2009.23 598.556C1998.6 598.556 1989.04 596.786 1980.72 593.155C1972.39 589.525 1965.22 584.389 1959.29 577.749C1953.36 570.931 1948.84 562.696 1945.57 553.222C1942.56 543.57 1940.96 532.768 1940.96 520.992C1940.96 509.215 1942.47 498.59 1945.57 489.027C1948.75 479.376 1953.36 471.141 1959.29 464.5C1965.22 457.683 1972.31 452.458 1980.72 448.828C1989.04 445.198 1998.6 443.427 2009.23 443.427C2019.85 443.427 2029.59 445.286 2037.74 449.094C2046.06 452.901 2053.06 458.214 2058.55 465.032C2064.04 471.673 2068.11 479.464 2070.77 488.407C2073.6 497.35 2075.02 506.913 2075.02 517.184V528.872H1973.19V533.742C1973.19 545.164 1976.56 554.55 1983.2 561.988C1990.01 569.248 1999.75 572.79 2012.24 572.79C2021.36 572.79 2029.06 570.754 2035.35 566.769C2041.64 562.785 2046.95 557.383 2051.29 550.477L2069.53 568.451C2064.04 577.571 2056.07 584.921 2045.53 590.41C2035.08 595.723 2022.95 598.379 2009.05 598.379L2009.23 598.556ZM2009.23 467.688C2003.92 467.688 1998.96 468.662 1994.44 470.521C1990.1 472.381 1986.3 475.126 1983.02 478.49C1980.01 481.944 1977.62 486.017 1975.85 490.71C1974.17 495.491 1973.28 500.715 1973.28 506.382V508.418H2042.26V505.585C2042.26 494.163 2039.33 485.043 2033.4 478.225C2027.47 471.23 2019.41 467.688 2009.14 467.688H2009.23ZM2156.57 598.556C2142.49 598.556 2130.71 596.077 2121.24 591.119C2111.76 586.16 2103.44 579.342 2096.45 570.577L2116.37 552.336C2121.86 558.977 2127.97 564.201 2134.61 568.009C2141.43 571.639 2149.31 573.41 2158.25 573.41C2167.19 573.41 2174.1 571.728 2178.53 568.274C2183.13 564.644 2185.34 559.686 2185.34 553.487C2185.34 548.706 2183.75 544.722 2180.47 541.534C2177.46 538.081 2172.06 535.956 2164.18 534.982L2150.46 533.299C2135.23 531.44 2123.27 527.013 2114.51 520.195C2105.92 513.2 2101.67 502.84 2101.67 489.116C2101.67 481.855 2103 475.48 2105.65 469.99C2108.31 464.323 2112.03 459.542 2116.81 455.735C2121.77 451.75 2127.52 448.74 2134.17 446.614C2140.98 444.489 2148.51 443.515 2156.66 443.515C2169.94 443.515 2180.83 445.641 2189.15 449.802C2197.74 453.964 2205.27 459.808 2212 467.157L2192.87 485.397C2189.06 480.793 2184.02 476.897 2177.73 473.709C2171.62 470.256 2164.62 468.573 2156.66 468.573C2148.07 468.573 2141.69 470.256 2137.53 473.709C2133.55 477.162 2131.51 481.589 2131.51 487.079C2131.51 492.569 2133.28 497.085 2136.91 499.918C2140.54 502.752 2146.3 504.877 2154.26 506.205L2167.99 507.887C2184.37 510.366 2196.23 515.236 2203.67 522.408C2211.29 529.403 2215.09 538.966 2215.09 550.92C2215.09 558.18 2213.68 564.733 2210.84 570.577C2208.19 576.243 2204.29 581.202 2199.16 585.363C2194.02 589.525 2187.82 592.801 2180.65 595.015C2173.39 597.317 2165.33 598.468 2156.39 598.468L2156.57 598.556Z" fill="white"/>
</g>
<defs>
<clipPath id="clip0_2659_1117">
<rect width="2461" height="834.619" fill="white"/>
</clipPath>
</defs>
</svg>
