<svg width="120" height="30" viewBox="0 0 120 30" fill="none" xmlns="http://www.w3.org/2000/svg">
<g id="Logotype_STPG_No icon">
<path id="Vector" d="M11.4441 14.9455C11.4441 13.0863 10.6092 11.7264 8.93935 10.8656L3.79216 8.23178C2.79371 7.72395 2.29449 6.90625 2.29449 5.7873C2.29449 5.02985 2.56131 4.3843 3.09497 3.85064C3.62862 3.31699 4.28278 3.05016 5.03162 3.05016C6.4174 3.05016 7.81179 3.3256 9.21479 3.86786C9.37833 3.93672 9.50744 3.96254 9.60212 3.96254C9.85173 3.96254 10.0669 3.86786 10.2477 3.69571C10.4284 3.51496 10.5145 3.29977 10.5145 3.05016C10.5145 2.70587 10.3337 2.43043 9.97223 2.21525C8.83606 1.55248 7.18345 1.2168 5.02301 1.2168C3.76634 1.2168 2.69042 1.66438 1.79526 2.55954C0.900094 3.45471 0.452515 4.53062 0.452515 5.7873C0.452515 7.64648 1.27882 8.99784 2.93143 9.84996L8.07862 12.4838C9.09429 13.0002 9.60212 13.8179 9.60212 14.9369C9.60212 15.6943 9.33529 16.3399 8.80164 16.8736C8.26798 17.4072 7.61382 17.674 6.86499 17.674C5.98704 17.674 5.16934 17.5449 4.4205 17.2867C3.27572 16.7617 2.4322 16.3313 1.89855 16.0128C1.69197 15.9009 1.51982 15.8493 1.3735 15.8493C1.12389 15.8493 0.908704 15.944 0.727949 16.1161C0.547195 16.2969 0.461121 16.512 0.461121 16.7617C0.461121 17.0543 0.590232 17.3039 0.865667 17.5105C2.61296 18.8446 4.60986 19.5074 6.87359 19.5074C8.13026 19.5074 9.20618 19.0598 10.1013 18.1647C10.9965 17.2695 11.4441 16.1936 11.4441 14.9369V14.9455Z" fill="#323E48"/>
<path id="Vector_2" d="M25.9046 2.13699C25.9046 1.52587 25.6033 1.22461 24.9922 1.22461C24.7168 1.22461 24.4844 1.3279 24.3036 1.52587L16.7636 9.83195V2.13699C16.7636 1.52587 16.4537 1.22461 15.8512 1.22461C15.2487 1.22461 14.9388 1.52587 14.9388 2.13699V18.6114C14.9388 19.2226 15.2401 19.5238 15.8512 19.5238C16.4623 19.5238 16.7636 19.2226 16.7636 18.6114V12.5691L19.1306 9.96106L24.1745 19.0418C24.3467 19.3689 24.6221 19.5238 24.9922 19.5238C25.2246 19.5238 25.4312 19.4291 25.6206 19.2398C25.8099 19.0504 25.9046 18.8438 25.9046 18.6114C25.9046 18.4565 25.8616 18.3016 25.7841 18.1553L20.4303 8.51503L25.655 2.76532C25.8185 2.58457 25.9046 2.36939 25.9046 2.1456V2.13699Z" fill="#323E48"/>
<path id="Vector_3" d="M32.8592 1.22461C32.2481 1.22461 31.9468 1.52587 31.9468 2.13699V18.6114C31.9468 19.2226 32.2481 19.5238 32.8592 19.5238C33.4703 19.5238 33.7716 19.2226 33.7716 18.6114V2.13699C33.7716 1.52587 33.4617 1.22461 32.8592 1.22461Z" fill="#323E48"/>
<path id="Vector_4" d="M51.8901 19.5238C52.5013 19.5238 52.8025 19.2226 52.8025 18.6114V2.13699C52.8025 1.52587 52.4927 1.22461 51.8901 1.22461C51.2876 1.22461 50.9778 1.52587 50.9778 2.13699V15.0738L43.5841 1.76687C43.3775 1.40536 43.102 1.22461 42.7405 1.22461C42.1294 1.22461 41.8282 1.52587 41.8282 2.13699V18.6114C41.8282 19.2226 42.138 19.5238 42.7405 19.5238C43.343 19.5238 43.6529 19.2226 43.6529 18.6114V5.65739L51.0897 19.0676C51.2532 19.3689 51.52 19.5238 51.8901 19.5238Z" fill="#323E48"/>
<path id="Vector_5" d="M70.3529 1.22461H61.2033C60.5922 1.22461 60.2909 1.52587 60.2909 2.13699C60.2909 2.74811 60.5922 3.04937 61.2033 3.04937H64.8614V18.6028C64.8614 19.214 65.1627 19.5152 65.7738 19.5152C66.3849 19.5152 66.6861 19.214 66.6861 18.6028V3.04937H70.3443C70.9554 3.04937 71.2567 2.74811 71.2567 2.13699C71.2567 1.52587 70.9554 1.22461 70.3443 1.22461H70.3529Z" fill="#323E48"/>
<path id="Vector_6" d="M82.8852 3.04937C83.4963 3.04937 83.7976 2.74811 83.7976 2.13699C83.7976 1.52587 83.4877 1.22461 82.8852 1.22461H75.5603C74.9492 1.22461 74.6479 1.52587 74.6479 2.13699V18.6114C74.6479 19.2226 74.9492 19.5238 75.5603 19.5238H82.8852C83.4963 19.5238 83.7976 19.2226 83.7976 18.6114C83.7976 18.0003 83.4877 17.6991 82.8852 17.6991H76.4813V10.3742H81.0604C81.6715 10.3742 81.9728 10.073 81.9728 9.46184C81.9728 8.85071 81.6629 8.54946 81.0604 8.54946H76.4813V3.05797H82.8852V3.04937Z" fill="#323E48"/>
<path id="Vector_7" d="M90.7265 3.85961C91.2601 3.32596 91.9057 3.05913 92.6717 3.05913H96.3298C96.941 3.05913 97.2422 2.75787 97.2422 2.14675C97.2422 1.53563 96.9324 1.23438 96.3298 1.23438H92.6717C91.4064 1.23438 90.3305 1.68196 89.4354 2.56851C88.5402 3.46368 88.1012 4.53959 88.1012 5.80487V14.9545C88.1012 16.2198 88.5488 17.2957 89.4354 18.1908C90.3305 19.086 91.4064 19.525 92.6717 19.525H96.3298C96.941 19.525 97.2422 19.2237 97.2422 18.6126C97.2422 18.0015 96.9324 17.7002 96.3298 17.7002H92.6717C91.9143 17.7002 91.2687 17.4334 90.7265 16.8997C90.1928 16.3661 89.926 15.7205 89.926 14.9631V5.81348C89.926 5.05604 90.1928 4.41048 90.7265 3.87683V3.85961Z" fill="#323E48"/>
<path id="Vector_8" d="M110.79 18.6114C110.79 19.2226 111.1 19.5238 111.702 19.5238C112.305 19.5238 112.615 19.2226 112.615 18.6114V2.13699C112.615 1.52587 112.305 1.22461 111.702 1.22461C111.1 1.22461 110.79 1.52587 110.79 2.13699V8.54085H103.474V2.13699C103.474 1.52587 103.164 1.22461 102.561 1.22461C101.959 1.22461 101.649 1.52587 101.649 2.13699V18.6114C101.649 19.2226 101.959 19.5238 102.561 19.5238C103.164 19.5238 103.474 19.2226 103.474 18.6114V10.3742H110.79V18.6114Z" fill="#323E48"/>
<path id="Vector_9" d="M2.07064 24.5859H0.254486V29.6643H1.09801V27.8223H2.07064C3.03466 27.8223 3.70603 27.1509 3.70603 26.1955C3.70603 25.2401 3.03466 24.5859 2.07064 24.5859ZM2.01038 27.0218H1.09801V25.3864H2.01899C2.55265 25.3864 2.8539 25.6791 2.8539 26.1955C2.8539 26.712 2.54404 27.0218 2.01038 27.0218Z" fill="#323E48"/>
<path id="Vector_10" d="M12.632 26.7206H10.2908V24.5859H9.4473V29.6557H10.2908V27.5124H12.632V29.6557H13.4755V24.5859H12.632V26.7206Z" fill="#323E48"/>
<path id="Vector_11" d="M20.8433 24.5859L18.9841 29.6643H19.8793L20.413 28.1666H22.0311L22.5734 29.6643H23.4686L21.6094 24.5859H20.8519H20.8433ZM20.6884 27.3833L21.222 25.9373C21.222 25.9373 21.222 25.9287 21.222 25.9201C21.222 25.9201 21.222 25.9287 21.222 25.9373L21.7471 27.3833H20.6798H20.6884Z" fill="#323E48"/>
<path id="Vector_12" d="M31.5337 27.4788C32.0244 27.2378 32.3342 26.73 32.3342 26.1102C32.3342 25.4905 32.0244 24.9568 31.5079 24.7245C31.3013 24.6384 31.0689 24.5781 30.5525 24.5781H28.9688V29.6565H29.8123V27.6854H30.6902L31.7489 29.6565H32.7129L31.5337 27.4788ZM30.7419 26.8935H29.8209V25.3872H30.5783C30.914 25.3872 31.0517 25.4216 31.155 25.4819C31.4218 25.6282 31.4821 25.9209 31.4821 26.1361C31.4821 26.6095 31.2067 26.9021 30.7419 26.9021V26.8935Z" fill="#323E48"/>
<path id="Vector_13" d="M42.0692 24.5859L40.7867 27.4522C40.7695 27.4952 40.7437 27.5469 40.7265 27.5985C40.7093 27.5469 40.6834 27.4952 40.6662 27.4522L39.3837 24.5859H38.6005L38.1959 29.6643H39.0394L39.2977 26.4193L40.3822 28.7949H41.0622L42.1381 26.4365L42.3963 29.6729H43.2398L42.8353 24.5945H42.0606L42.0692 24.5859Z" fill="#323E48"/>
<path id="Vector_14" d="M50.4528 24.5859L48.5936 29.6643H49.4888L50.0224 28.1666H51.6406L52.1829 29.6643H53.078L51.2188 24.5859H50.4614H50.4528ZM50.2978 27.3833L50.8315 25.9373C50.8315 25.9373 50.8315 25.9287 50.8315 25.9201C50.8315 25.9201 50.8315 25.9287 50.8315 25.9373L51.3566 27.3833H50.2892H50.2978Z" fill="#323E48"/>
<path id="Vector_15" d="M67.6933 27.8299H68.5024V28.3635C68.3646 28.5099 67.8912 28.9402 67.2113 28.9402C66.2386 28.9402 65.5328 28.1742 65.5328 27.1069C65.5328 26.0396 66.2558 25.2993 67.2543 25.2993C68.029 25.2993 68.5368 25.7211 68.5368 25.7211L68.6917 25.8588L69.1565 25.2046L69.036 25.0927C69.036 25.0927 68.3819 24.4902 67.2285 24.4902C65.791 24.4902 64.6635 25.6436 64.6635 27.1155C64.6635 28.5873 65.7652 29.7493 67.1596 29.7493C67.7707 29.7493 68.2269 29.5255 68.511 29.3276V29.6632H69.3201V27.0294H67.6933V27.8299Z" fill="#323E48"/>
<path id="Vector_16" d="M78.8054 27.4784C79.296 27.2374 79.6059 26.7296 79.6059 26.1013C79.6059 25.4729 79.296 24.9393 78.7796 24.7069C78.573 24.6208 78.3406 24.5605 77.8155 24.5605H76.2318V29.6647H77.0753V27.6764H77.9532L79.0206 29.6647H79.9846L78.8054 27.4784ZM78.0049 26.8845H77.0753V25.3696H77.8327C78.1684 25.3696 78.3061 25.4041 78.4094 25.4643C78.6849 25.6106 78.7365 25.9033 78.7365 26.1185C78.7365 26.6005 78.4611 26.8845 77.9963 26.8845H78.0049Z" fill="#323E48"/>
<path id="Vector_17" d="M88.8844 24.4902C87.4298 24.4902 86.2936 25.635 86.2936 27.0897C86.2936 28.5443 87.4298 29.7493 88.8844 29.7493C90.3391 29.7493 91.4752 28.5787 91.4752 27.0897C91.4752 25.6006 90.3391 24.4902 88.8844 24.4902ZM88.8844 28.9402C87.9118 28.9402 87.1543 28.1311 87.1543 27.0897C87.1543 26.0482 87.9118 25.2993 88.8844 25.2993C89.8571 25.2993 90.6145 26.0826 90.6145 27.0897C90.6145 28.0967 89.8571 28.9402 88.8844 28.9402Z" fill="#323E48"/>
<path id="Vector_18" d="M101.4 27.8133C101.4 28.5191 100.969 28.9409 100.246 28.9409C99.5232 28.9409 99.1014 28.5277 99.1014 27.8305V24.5684H98.2493V27.8305C98.2493 28.9753 99.0584 29.75 100.255 29.75C101.451 29.75 102.243 28.9839 102.243 27.8305V24.5684H101.4V27.8133Z" fill="#323E48"/>
<path id="Vector_19" d="M111.169 24.5684H109.344V29.6725H110.188V27.8219H111.16C112.133 27.8219 112.804 27.1506 112.804 26.1865C112.804 25.2225 112.124 24.577 111.16 24.577L111.169 24.5684ZM111.109 27.0215H110.196V25.3688H111.117C111.651 25.3688 111.961 25.6701 111.961 26.1865C111.961 26.703 111.651 27.0215 111.109 27.0215Z" fill="#323E48"/>
<path id="Vector_20" d="M118.752 2.85215C118.752 2.42178 118.511 2.23242 118.029 2.23242H117.142V4.5564H117.444V3.48049H117.788L118.365 4.5564H118.726L118.115 3.48049C118.476 3.47188 118.752 3.29973 118.752 2.84354V2.85215ZM118.012 3.17923H117.461V2.54229H117.986C118.244 2.54229 118.451 2.5595 118.451 2.84354C118.451 3.12759 118.261 3.18784 118.012 3.18784V3.17923Z" fill="#323E48"/>
<path id="Vector_21" d="M117.831 1.22461C116.635 1.22461 115.662 2.19724 115.662 3.39366C115.662 4.59008 116.635 5.56271 117.831 5.56271C119.027 5.56271 120 4.59008 120 3.39366C120 2.19724 119.027 1.22461 117.831 1.22461ZM117.831 5.20981C116.833 5.20981 116.015 4.39211 116.015 3.39366C116.015 2.39521 116.833 1.57751 117.831 1.57751C118.83 1.57751 119.647 2.39521 119.647 3.39366C119.647 4.39211 118.83 5.20981 117.831 5.20981Z" fill="#323E48"/>
</g>
</svg>
