<svg width="24" height="25" viewBox="0 0 24 25" fill="none" xmlns="http://www.w3.org/2000/svg">
<g id="Icon" clip-path="url(#clip0_880_32749)">
<path id="Union" fill-rule="evenodd" clip-rule="evenodd" d="M2 12.5C2 6.98 6.48 2.5 12 2.5C17.52 2.5 22 6.98 22 12.5C22 18.02 17.52 22.5 12 22.5C6.48 22.5 2 18.02 2 12.5ZM5.04613 16.4512C6.4247 18.8672 9.02587 20.5 12 20.5C14.975 20.5 17.5768 18.8662 18.9551 16.4491C18.3498 16.126 17.8557 15.9 17 15.9C16.1318 15.9 15.6022 16.1689 14.9541 16.4979L14.95 16.5L14.9356 16.5073C14.1895 16.8854 13.3712 17.3 12 17.3C10.6288 17.3 9.81052 16.8854 9.0644 16.5073L9.05 16.5C8.4 16.15 7.88 15.9 7 15.9C6.16379 15.9 5.65265 16.1438 5.04613 16.4512ZM4.28806 14.6301C4.97756 14.2868 5.76426 13.95 7 13.95C8.37117 13.95 9.18949 14.3646 9.9356 14.7427L9.95 14.75C10.6 15.1 11.1 15.35 12 15.35C12.8682 15.35 13.3978 15.0811 14.046 14.7521L14.05 14.75C14.8 14.37 15.65 13.95 17 13.95C18.2093 13.95 19.0174 14.287 19.7118 14.6304C19.8996 13.9518 20 13.2374 20 12.5C20 12.1486 19.9772 11.8023 19.933 11.4627C19.6126 11.335 19.3259 11.1898 19.05 11.05C18.4 10.7 17.9 10.45 17 10.45C16.1 10.45 15.6 10.7 14.95 11.05C14.924 11.0628 14.8979 11.0757 14.8717 11.0887C14.1425 11.4493 13.3322 11.85 12 11.85C10.6288 11.85 9.81052 11.4354 9.06441 11.0573L9.05 11.05C8.4 10.7 7.9 10.45 7 10.45C6.1 10.45 5.6 10.7 4.95 11.05C4.93839 11.0557 4.92676 11.0615 4.91509 11.0672C4.65143 11.1974 4.37474 11.3339 4.06789 11.4559C4.02311 11.7977 4 12.1462 4 12.5C4 13.2372 4.10033 13.9516 4.28806 14.6301ZM4.8434 8.92735C6.15833 6.30495 8.87303 4.5 12 4.5C15.1261 4.5 17.8402 6.30397 19.1555 8.92522C18.5807 8.68747 17.9019 8.5 17 8.5C15.6709 8.5 14.8264 8.91679 14.0849 9.28277C14.0733 9.28853 14.0616 9.29427 14.05 9.3C14.0233 9.31317 13.9967 9.32627 13.9703 9.33929C13.3558 9.64257 12.8342 9.9 12 9.9C11.1 9.9 10.6 9.65 9.95 9.3L9.9356 9.2927C9.18949 8.91464 8.37118 8.5 7 8.5C6.08104 8.5 5.4104 8.69068 4.8434 8.92735Z" fill="#323E48"/>
</g>
<defs>
<clipPath id="clip0_880_32749">
<rect width="24" height="24" fill="white" transform="translate(0 0.5)"/>
</clipPath>
</defs>
</svg>
