<svg width="24" height="24" viewBox="0 0 24 24" fill="none" xmlns="http://www.w3.org/2000/svg">
<g id="Icon" clip-path="url(#clip0_823_16954)">
<path id="Union" fill-rule="evenodd" clip-rule="evenodd" d="M16 4H8L8 7H16V4ZM6 7C6 7.08747 6.00561 7.17362 6.0165 7.25812C5.40961 7.60152 5 8.25293 5 9V20C5 21.1046 5.89543 22 7 22H17C18.1046 22 19 21.1046 19 20V9C19 8.25292 18.5904 7.60152 17.9835 7.25812C17.9944 7.17362 18 7.08747 18 7V4C18 2.89543 17.1046 2 16 2H8C6.89543 2 6 2.89543 6 4V7ZM8 9H16H17V16.1662C15.0285 15.7989 13.6287 15.1768 12.2111 14.5467L12.2031 14.5431C10.7017 13.8759 9.18015 13.2007 7 12.8178V9H8ZM7 13.8339L7 20H17V17.1823C14.8198 16.7995 13.2983 16.1243 11.7969 15.457L11.7889 15.4534C10.3713 14.8234 8.97151 14.2012 7 13.8339Z" fill="#323E48"/>
</g>
<defs>
<clipPath id="clip0_823_16954">
<rect width="24" height="24" fill="white"/>
</clipPath>
</defs>
</svg>
