<svg width="24" height="24" viewBox="0 0 24 25" fill="none" xmlns="http://www.w3.org/2000/svg">
<g id="Products_filled_2" clip-path="url(#clip0_823_13109)">
<path id="Subtract" fill-rule="evenodd" clip-rule="evenodd" d="M7.875 2.5C6.77043 2.5 5.875 3.39543 5.875 4.5V7.5H18.125V4.5C18.125 3.39543 17.2296 2.5 16.125 2.5H7.875ZM5 20.5V9.5H19V20.5C19 21.6046 18.1046 22.5 17 22.5H7C5.89543 22.5 5 21.6046 5 20.5ZM11.5219 15.8344C11.6132 15.8751 11.7048 15.9159 11.7969 15.9569L11.8071 15.9614C13.2674 16.6105 14.8632 17.2802 17 17.6664V16.6824C15.1138 16.3414 13.832 15.7696 12.478 15.1656C12.3868 15.1249 12.2952 15.084 12.2031 15.0431L12.1929 15.0385C10.7325 14.3895 9.13674 13.7198 7 13.3336V14.3176C8.88622 14.6586 10.1679 15.2303 11.5219 15.8344Z" fill="#323232"/>
</g>
<defs>
<clipPath id="clip0_823_13109">
<rect width="24" height="24" fill="white"/>
</clipPath>
</defs>
</svg>
